<svg width="24" height="25" viewBox="0 0 24 25" fill="none" xmlns="http://www.w3.org/2000/svg">
<path d="M21 21.7219L16.657 17.3789M16.657 17.3789C17.3999 16.636 17.9892 15.7541 18.3912 14.7834C18.7933 13.8128 19.0002 12.7725 19.0002 11.7219C19.0002 10.6713 18.7933 9.63097 18.3913 8.66034C17.9892 7.68971 17.3999 6.80777 16.657 6.06489C15.9141 5.322 15.0322 4.73271 14.0616 4.33066C13.0909 3.92861 12.0506 3.72168 11 3.72168C9.94942 3.72168 8.90911 3.92861 7.93848 4.33066C6.96785 4.73271 6.08591 5.322 5.34302 6.06489C3.84269 7.56522 2.99982 9.6001 2.99982 11.7219C2.99982 13.8437 3.84269 15.8786 5.34302 17.3789C6.84335 18.8792 8.87824 19.7221 11 19.7221C13.1218 19.7221 15.1567 18.8792 16.657 17.3789Z" stroke="url(#paint0_linear_19123_653)" stroke-width="3" stroke-linecap="round" stroke-linejoin="round"/>
<defs>
<linearGradient id="paint0_linear_19123_653" x1="10.4586" y1="14.0343" x2="22.0934" y2="19.4122" gradientUnits="userSpaceOnUse">
<stop stop-color="#6B4EFF"/>
<stop offset="1" stop-color="#4F92F6"/>
</linearGradient>
</defs>
</svg>
