<svg width="21" height="21" viewBox="0 0 21 21" fill="none" xmlns="http://www.w3.org/2000/svg">
<path fill-rule="evenodd" clip-rule="evenodd" d="M11.7071 1.01447C11.5196 0.826995 11.2652 0.72168 11.0001 0.72168C10.7349 0.72168 10.4806 0.826995 10.2931 1.01447L3.29308 8.01447L1.29308 10.0145C1.19757 10.1067 1.12139 10.2171 1.06898 10.3391C1.01657 10.4611 0.988985 10.5923 0.987831 10.7251C0.986677 10.8578 1.01198 10.9895 1.06226 11.1124C1.11254 11.2353 1.18679 11.347 1.28069 11.4409C1.37458 11.5348 1.48623 11.609 1.60913 11.6593C1.73202 11.7096 1.8637 11.7349 1.99648 11.7337C2.12926 11.7326 2.26048 11.705 2.38249 11.6526C2.50449 11.6002 2.61483 11.524 2.70708 11.4285L3.00008 11.1355V17.7215C3.00008 18.5171 3.31615 19.2802 3.87876 19.8428C4.44137 20.4054 5.20443 20.7215 6.00008 20.7215H16.0001C16.7957 20.7215 17.5588 20.4054 18.1214 19.8428C18.684 19.2802 19.0001 18.5171 19.0001 17.7215V11.1355L19.2931 11.4285C19.4817 11.6106 19.7343 11.7114 19.9965 11.7091C20.2587 11.7069 20.5095 11.6017 20.6949 11.4163C20.8803 11.2309 20.9855 10.9801 20.9878 10.7179C20.99 10.4557 20.8892 10.2031 20.7071 10.0145L11.7071 1.01447Z" fill="#CDCBD3"/>
</svg>
