<svg width="21" height="20" viewBox="0 0 21 20" fill="none" xmlns="http://www.w3.org/2000/svg">
<path fill-rule="evenodd" clip-rule="evenodd" d="M11.707 0.292786C11.5195 0.105315 11.2652 0 11 0C10.7349 0 10.4805 0.105315 10.293 0.292786L3.29302 7.29279L1.29302 9.29279C1.19751 9.38503 1.12133 9.49538 1.06892 9.61738C1.01651 9.73939 0.988924 9.87061 0.98777 10.0034C0.986616 10.1362 1.01192 10.2678 1.0622 10.3907C1.11248 10.5136 1.18673 10.6253 1.28063 10.7192C1.37452 10.8131 1.48617 10.8873 1.60907 10.9376C1.73196 10.9879 1.86364 11.0132 1.99642 11.012C2.1292 11.0109 2.26042 10.9833 2.38242 10.9309C2.50443 10.8785 2.61477 10.8023 2.70702 10.7068L3.00002 10.4138V16.9998C3.00002 17.7954 3.31609 18.5585 3.8787 19.1211C4.44131 19.6837 5.20437 19.9998 6.00002 19.9998H16C16.7957 19.9998 17.5587 19.6837 18.1213 19.1211C18.684 18.5585 19 17.7954 19 16.9998V10.4138L19.293 10.7068C19.4816 10.8889 19.7342 10.9897 19.9964 10.9875C20.2586 10.9852 20.5094 10.88 20.6948 10.6946C20.8802 10.5092 20.9854 10.2584 20.9877 9.99619C20.99 9.73399 20.8892 9.48139 20.707 9.29279L11.707 0.292786Z" fill="url(#paint0_linear_19123_7433)"/>
<defs>
<linearGradient id="paint0_linear_19123_7433" x1="9.27519" y1="11.4582" x2="22.2025" y2="17.4337" gradientUnits="userSpaceOnUse">
<stop stop-color="#6B4EFF"/>
<stop offset="1" stop-color="#4F92F6"/>
</linearGradient>
</defs>
</svg>
