<svg width="18" height="22" viewBox="0 0 18 22" fill="none" xmlns="http://www.w3.org/2000/svg">
<path d="M5.86533 19.2656H12.1358C12.1655 19.2656 12.195 19.2735 12.2208 19.2881C12.2465 19.3026 12.268 19.3234 12.2833 19.3486C12.2986 19.374 12.3069 19.403 12.3077 19.4326L12.3038 19.4766L12.2882 19.5176C12.0085 20.0374 11.61 20.4823 11.127 20.8174L10.9151 20.9541C10.3363 21.3003 9.67459 21.4838 9.00009 21.4844L8.74814 21.4756C8.24532 21.4412 7.75473 21.3051 7.30576 21.0762L7.08505 20.9541C6.57846 20.6511 6.15174 20.2332 5.83896 19.7354L5.71201 19.5176C5.70519 19.5046 5.70067 19.4907 5.69736 19.4766L5.69247 19.4326C5.6929 19.4177 5.69511 19.4029 5.69931 19.3887L5.71689 19.3486C5.72457 19.3359 5.73463 19.3247 5.74521 19.3145L5.78036 19.2881C5.79335 19.2808 5.80708 19.2752 5.82138 19.2715L5.86533 19.2656ZM9.00009 0.515625C10.2488 0.515676 11.3568 1.42332 11.7628 2.78125V2.78223L11.7677 2.78809C11.7795 2.80188 11.7938 2.81336 11.8097 2.82227L11.8175 2.80859L11.8097 2.82324H11.8116C12.8007 3.23017 13.5807 3.76255 14.1847 4.44434L14.4327 4.74609C15.292 5.86761 15.7286 7.36391 15.7286 9.18945C15.7286 10.9557 15.8852 12.0294 16.171 12.8174C16.3853 13.4082 16.6721 13.8384 17.0196 14.2793L17.3878 14.7305L17.6163 15.0088C17.7905 15.2192 17.9088 15.4695 17.961 15.7363L17.9796 15.8516C18.0128 16.1228 17.977 16.3974 17.877 16.6504L17.8311 16.7578C17.5437 17.3586 16.9368 17.7334 16.2423 17.7334H1.76279C1.10851 17.7333 0.531338 17.4029 0.225677 16.8643L0.16806 16.7539C0.0503509 16.5079 -0.00406164 16.237 0.00985718 15.9658L0.0205994 15.8496C0.0540897 15.5787 0.154459 15.3207 0.312592 15.0996L0.383881 15.0078L0.613373 14.7295C1.12931 14.1067 1.5444 13.6047 1.83017 12.8164C2.11579 12.0284 2.27156 10.9551 2.27158 9.18848C2.27158 7.58739 2.59274 6.26645 3.24228 5.21094C3.85121 4.22162 4.74971 3.46394 5.94638 2.92578L6.18954 2.82129L6.19052 2.82031C6.20615 2.81161 6.22058 2.80044 6.23251 2.78711L6.23447 2.78809L6.23642 2.78027C6.64226 1.42331 7.75112 0.515625 9.00009 0.515625Z" fill="url(#paint0_linear_21149_1381)" stroke="url(#paint1_linear_21149_1381)" stroke-width="0.03125"/>
<defs>
<linearGradient id="paint0_linear_21149_1381" x1="7.45729" y1="12.5313" x2="19.6694" y2="17.3737" gradientUnits="userSpaceOnUse">
<stop stop-color="#6B4EFF"/>
<stop offset="1" stop-color="#4F92F6"/>
</linearGradient>
<linearGradient id="paint1_linear_21149_1381" x1="7.45729" y1="12.5313" x2="19.6694" y2="17.3737" gradientUnits="userSpaceOnUse">
<stop stop-color="#6B4EFF"/>
<stop offset="1" stop-color="#4F92F6"/>
</linearGradient>
</defs>
</svg>
