<svg width="18" height="22" viewBox="0 0 18 22" fill="none" xmlns="http://www.w3.org/2000/svg">
<path d="M17.6286 14.7206C17.5508 14.6268 17.4744 14.5331 17.3994 14.4426C16.3682 13.1953 15.7443 12.4425 15.7443 8.91137C15.7443 7.08324 15.3069 5.58324 14.4449 4.45824C13.8093 3.62715 12.95 2.99668 11.8175 2.53074C11.803 2.52264 11.79 2.512 11.7791 2.49934C11.3718 1.13527 10.2571 0.22168 8.99989 0.22168C7.74271 0.22168 6.62849 1.13527 6.22114 2.49793C6.21029 2.51015 6.19746 2.52045 6.18318 2.5284C3.54036 3.61637 2.25599 5.70371 2.25599 8.90996C2.25599 12.4425 1.63302 13.1953 0.600833 14.4412C0.525833 14.5317 0.449427 14.6236 0.371614 14.7192C0.170614 14.9616 0.0432647 15.2565 0.00463614 15.569C-0.0339924 15.8815 0.0177171 16.1986 0.153645 16.4826C0.442864 17.092 1.05927 17.4703 1.76286 17.4703H16.2421C16.9424 17.4703 17.5546 17.0925 17.8447 16.4859C17.9813 16.2018 18.0335 15.8845 17.9952 15.5716C17.9569 15.2587 17.8297 14.9634 17.6286 14.7206ZM8.99989 21.2217C9.67725 21.2211 10.3418 21.0373 10.9232 20.6896C11.5045 20.3419 11.9809 19.8434 12.3018 19.2468C12.3169 19.2182 12.3244 19.1862 12.3234 19.1539C12.3225 19.1216 12.3133 19.09 12.2966 19.0623C12.2799 19.0347 12.2563 19.0118 12.2281 18.9959C12.2 18.98 12.1682 18.9716 12.1358 18.9717H5.86489C5.83252 18.9716 5.80066 18.9798 5.77243 18.9957C5.7442 19.0115 5.72055 19.0344 5.7038 19.0621C5.68704 19.0899 5.67774 19.1214 5.67681 19.1538C5.67588 19.1862 5.68335 19.2182 5.69849 19.2468C6.01936 19.8433 6.49567 20.3418 7.0769 20.6895C7.65813 21.0371 8.32261 21.221 8.99989 21.2217Z" fill="#CDCBD3"/>
</svg>
