<svg width="20" height="21" viewBox="0 0 20 21" fill="none" xmlns="http://www.w3.org/2000/svg">
<path d="M17.4999 10.7217C17.4999 10.4917 17.4899 10.2717 17.4699 10.0417L19.3299 8.63168C19.7299 8.33168 19.8399 7.77168 19.5899 7.33168L17.7199 4.10168C17.6 3.88986 17.4061 3.72982 17.1753 3.6523C16.9446 3.57478 16.6934 3.58524 16.4699 3.68168L14.3199 4.59168C13.9499 4.33168 13.5599 4.10168 13.1499 3.91168L12.8599 1.60168C12.7999 1.10168 12.3699 0.72168 11.8699 0.72168H8.13991C7.62991 0.72168 7.19991 1.10168 7.13991 1.60168L6.84991 3.91168C6.43991 4.10168 6.04991 4.33168 5.67991 4.59168L3.52991 3.68168C3.06991 3.48168 2.52991 3.66168 2.27991 4.10168L0.409909 7.34168C0.159909 7.78168 0.269909 8.33168 0.669909 8.64168L2.52991 10.0517C2.48821 10.5007 2.48821 10.9526 2.52991 11.4017L0.669909 12.8117C0.269909 13.1117 0.159909 13.6717 0.409909 14.1117L2.27991 17.3417C2.52991 17.7817 3.06991 17.9617 3.52991 17.7617L5.67991 16.8517C6.04991 17.1117 6.43991 17.3417 6.84991 17.5317L7.13991 19.8417C7.19991 20.3417 7.62991 20.7217 8.12991 20.7217H11.8599C12.3599 20.7217 12.7899 20.3417 12.8499 19.8417L13.1399 17.5317C13.5499 17.3417 13.9399 17.1117 14.3099 16.8517L16.4599 17.7617C16.9199 17.9617 17.4599 17.7817 17.7099 17.3417L19.5799 14.1117C19.8299 13.6717 19.7199 13.1217 19.3199 12.8117L17.4599 11.4017C17.4899 11.1717 17.4999 10.9517 17.4999 10.7217ZM10.0399 14.2217C8.10991 14.2217 6.53991 12.6517 6.53991 10.7217C6.53991 8.79168 8.10991 7.22168 10.0399 7.22168C11.9699 7.22168 13.5399 8.79168 13.5399 10.7217C13.5399 12.6517 11.9699 14.2217 10.0399 14.2217Z" fill="#CDCBD3"/>
</svg>
