<svg viewBox="0 0 114.907 24.8688" fill="none" xmlns="http://www.w3.org/2000/svg">
<g id="Group">
<path id="Vector" d="M19.5936 9.73242C19.1785 11.6773 18.4903 13.3808 17.5291 14.844C16.5679 16.3072 15.3834 17.4433 13.9743 18.2522C12.5653 19.0599 10.9983 19.4649 9.27224 19.4649C7.45931 19.4649 5.85284 19.0554 4.4562 18.2364C3.05843 17.4173 1.96638 16.2757 1.18007 14.8125C0.393752 13.3493 2.9549e-05 11.6559 2.9549e-05 9.73355C2.9549e-05 7.81119 0.393752 6.09191 1.18007 4.63887C1.96638 3.18695 3.05843 2.05091 4.4562 1.23075C5.85397 0.411717 7.45931 0.00218558 9.27224 0.00218558C11.0852 0.00218558 12.5653 0.406061 13.9743 1.21494C15.3834 2.02382 16.5736 3.15422 17.546 4.60614C18.5174 6.05919 19.201 7.76833 19.5936 9.73355V9.73242ZM4.32533 9.73242C4.32533 10.9779 4.58142 12.0756 5.09585 13.0255C5.60916 13.9754 6.31312 14.7188 7.20887 15.2535C8.10461 15.7894 9.13122 16.0568 10.2887 16.0568C11.4462 16.0568 12.5608 15.7894 13.5648 15.2535C14.5689 14.7188 15.4601 13.9754 16.2351 13.0255C17.0102 12.0756 17.6273 10.9779 18.0864 9.73242C17.6273 8.48695 17.0102 7.38927 16.2351 6.43938C15.459 5.48948 14.5689 4.74716 13.5648 4.21129C12.5596 3.67655 11.4676 3.40804 10.2887 3.40804C9.10979 3.40804 8.10461 3.67543 7.20887 4.21129C6.31312 4.74716 5.60803 5.48948 5.09585 6.43938C4.58255 7.38927 4.32533 8.48695 4.32533 9.73242ZM18.2838 19.0046L17.563 12.1241L18.4147 9.73242L17.563 7.37348L18.2838 0.460218H22.6746L21.692 9.73242L22.6746 19.0046H18.2838Z" fill="url(#paint0_linear_20736_1292)"/>
<path id="Vector_2" d="M34.6983 17.563C32.9948 17.563 31.4651 17.1974 30.1113 16.4653C28.7564 15.7342 27.6869 14.7121 26.9006 13.4012C26.1143 12.0903 25.7205 10.5504 25.7205 8.78148C25.7205 7.01256 26.1143 5.47265 26.9006 4.16174C27.6869 2.85084 28.7564 1.82985 30.1113 1.09769C31.4651 0.366651 32.9948 7.12276e-06 34.6983 7.12276e-06C35.9652 7.12276e-06 37.1396 0.196302 38.2204 0.590024C39.3011 0.983746 40.2736 1.5027 41.1366 2.14687C41.9997 2.79104 42.7307 3.50178 43.332 4.27682C43.9322 5.05298 44.397 5.83928 44.7241 6.63575C45.0513 7.43335 45.216 8.15988 45.216 8.8142C45.216 9.66595 44.9644 10.6 44.4624 11.6154C43.9592 12.6307 43.244 13.5874 42.3167 14.482C41.3882 15.3777 40.2792 16.1155 38.9909 16.6931C37.7014 17.2719 36.2709 17.5618 34.6983 17.5618V17.563ZM43.6106 14.4504V11.1743L43.7742 10.5843V7.01256L43.6106 6.35711V0.459169H47.8705V14.0567C47.8705 16.4382 47.3674 18.4305 46.3633 20.0358C45.3581 21.6412 43.9818 22.8483 42.2354 23.6561C40.4879 24.4638 38.4787 24.8688 36.2066 24.8688C34.546 24.8688 33.0174 24.65 31.6196 24.2134C30.2218 23.7756 28.8669 23.11 27.5572 22.2143V18.6753C28.8895 19.7233 30.2658 20.4612 31.685 20.8865C33.1042 21.3129 34.5246 21.525 35.9449 21.525C38.4347 21.525 40.3356 20.9135 41.6465 19.6906C42.9574 18.4677 43.6129 16.7202 43.6129 14.4481L43.6106 14.4504ZM36.0092 14.4177C37.5604 14.4177 38.9853 13.9698 40.2849 13.0741C41.5845 12.1783 42.7476 10.7478 43.7742 8.78148C42.7476 6.77226 41.5834 5.32486 40.2849 4.44039C38.9853 3.55593 37.5593 3.11369 36.0092 3.11369C34.7423 3.11369 33.6604 3.35398 32.7658 3.83456C31.8701 4.31515 31.1875 4.98188 30.7182 5.83363C30.2478 6.68538 30.0143 7.66801 30.0143 8.78261C30.0143 9.89722 30.2489 10.8471 30.7182 11.6989C31.1875 12.5506 31.8701 13.2174 32.7658 13.6979C33.6615 14.1785 34.7423 14.4188 36.0092 14.4188V14.4177Z" fill="url(#paint1_linear_20736_1292)"/>
<path id="Vector_3" d="M62.5482 19.4638C60.2987 19.4638 58.3267 19.0543 56.6345 18.2353C54.9411 17.4163 53.6201 16.2746 52.6702 14.8114C51.7203 13.3482 51.2453 11.6548 51.2453 9.73246C51.2453 7.81011 51.7203 6.09082 52.6702 4.63778C53.6201 3.18586 54.9423 2.04982 56.6345 1.22966C58.3267 0.410628 60.2987 0.00109635 62.5482 0.00109635C64.7977 0.00109635 66.7697 0.410628 68.4619 1.22966C70.1541 2.04869 71.4763 3.18473 72.4262 4.63778C73.3761 6.09082 73.8511 7.78867 73.8511 9.73246C73.8511 11.6763 73.3761 13.3482 72.4262 14.8114C71.4763 16.2746 70.1541 17.4163 68.4619 18.2353C66.7686 19.0543 64.7977 19.4638 62.5482 19.4638ZM62.5482 16.1212C63.99 16.1212 65.2298 15.8594 66.2666 15.3348C67.3033 14.8103 68.1066 14.0736 68.6752 13.1237C69.2426 12.1738 69.5269 11.0434 69.5269 9.73246C69.5269 8.42156 69.2426 7.29115 68.6752 6.34126C68.1066 5.39136 67.3045 4.65357 66.2666 4.13011C65.2287 3.60553 63.99 3.3438 62.5482 3.3438C61.1064 3.3438 59.8937 3.60553 58.8456 4.13011C57.7976 4.6547 56.9887 5.39136 56.4213 6.34126C55.8527 7.29115 55.5695 8.42156 55.5695 9.73246C55.5695 11.0434 55.8527 12.1738 56.4213 13.1237C56.9887 14.0736 57.7976 14.8114 58.8456 15.3348C59.8937 15.8583 61.1279 16.1212 62.5482 16.1212Z" fill="url(#paint2_linear_20736_1292)"/>
<path id="Vector_4" d="M76.4403 0.459129H80.7002L81.8137 7.20882V19.0047H77.5538V6.38979L76.4403 0.459129ZM91.2179 0.328274V4.06354C90.7373 3.93268 90.2127 3.83454 89.6453 3.76911C89.0767 3.70368 88.5419 3.67095 88.0399 3.67095C86.8384 3.67095 85.7678 3.93268 84.8292 4.45726C83.8895 4.98185 83.1528 5.76253 82.6181 6.80042C82.0822 7.83831 81.8148 9.11087 81.8148 10.6181L80.8322 9.40531C80.9191 8.09441 81.1436 6.86587 81.5035 5.71968C81.8645 4.57235 82.3665 3.57394 83.0107 2.72106C83.6548 1.86931 84.4468 1.20258 85.3865 0.721995C86.3251 0.241406 87.4183 0.00109635 88.6627 0.00109635C89.0992 0.00109635 89.5471 0.0292977 90.0063 0.0834486C90.4654 0.138728 90.8693 0.219974 91.219 0.329404L91.2179 0.328274Z" fill="url(#paint3_linear_20736_1292)"/>
<path id="Vector_5" d="M111.827 9.73251C111.412 11.6774 110.724 13.3809 109.763 14.8441C108.802 16.3073 107.617 17.4434 106.208 18.2522C104.799 19.0611 103.232 19.465 101.506 19.465C99.6931 19.465 98.0866 19.0555 96.69 18.2365C95.2922 17.4174 94.2002 16.2757 93.4138 14.8125C92.6275 13.3493 92.2338 11.656 92.2338 9.73363C92.2338 7.81128 92.6275 6.092 93.4138 4.63895C94.2002 3.18703 95.2922 2.05099 96.69 1.23083C98.0877 0.411801 99.6931 0.00226936 101.506 0.00226936C103.319 0.00226936 104.799 0.406145 106.208 1.21502C107.617 2.0239 108.807 3.15431 109.78 4.60623C110.751 6.05928 111.435 7.76841 111.827 9.73363V9.73251ZM96.5591 9.73251C96.5591 10.978 96.8152 12.0757 97.3296 13.0255C97.8429 13.9754 98.5469 14.7189 99.4426 15.2536C100.338 15.7895 101.365 16.0569 102.522 16.0569C103.68 16.0569 104.795 15.7895 105.799 15.2536C106.803 14.7189 107.693 13.9754 108.469 13.0255C109.244 12.0757 109.861 10.978 110.32 9.73251C109.861 8.48704 109.244 7.38936 108.469 6.43946C107.693 5.48956 106.803 4.74725 105.799 4.21138C104.793 3.67664 103.701 3.40813 102.522 3.40813C101.344 3.40813 100.338 3.67551 99.4426 4.21138C98.5469 4.74725 97.8418 5.48956 97.3296 6.43946C96.8163 7.38936 96.5591 8.48704 96.5591 9.73251ZM110.517 19.0047L109.796 12.1242L110.647 9.73251L109.796 7.37357L110.517 0.460302H114.907L113.925 9.73251L114.907 19.0047H110.517Z" fill="url(#paint4_linear_20736_1292)"/>
</g>
<defs>
<linearGradient id="paint0_linear_20736_1292" x1="12.6623" y1="6.02751" x2="12.6623" y2="19.4638" gradientUnits="userSpaceOnUse">
<stop stop-color="#6B4EFF"/>
<stop offset="1" stop-color="#4F92F6"/>
</linearGradient>
<linearGradient id="paint1_linear_20736_1292" x1="38.0899" y1="7.69896" x2="38.0899" y2="24.8674" gradientUnits="userSpaceOnUse">
<stop stop-color="#6B4EFF"/>
<stop offset="1" stop-color="#4F92F6"/>
</linearGradient>
<linearGradient id="paint2_linear_20736_1292" x1="63.8692" y1="6.02642" x2="63.8692" y2="19.4627" gradientUnits="userSpaceOnUse">
<stop stop-color="#6B4EFF"/>
<stop offset="1" stop-color="#4F92F6"/>
</linearGradient>
<linearGradient id="paint3_linear_20736_1292" x1="84.6933" y1="5.88427" x2="84.6933" y2="19.0036" gradientUnits="userSpaceOnUse">
<stop stop-color="#6B4EFF"/>
<stop offset="1" stop-color="#4F92F6"/>
</linearGradient>
<linearGradient id="paint4_linear_20736_1292" x1="104.895" y1="6.02759" x2="104.895" y2="19.4639" gradientUnits="userSpaceOnUse">
<stop stop-color="#6B4EFF"/>
<stop offset="1" stop-color="#4F92F6"/>
</linearGradient>
</defs>
</svg>
