<svg preserveAspectRatio="none" width="100%" height="100%" overflow="visible" style="display: block;" viewBox="0 0 26.3279 28.9157" fill="none" xmlns="http://www.w3.org/2000/svg">
<g id="Group">
<path id="Vector" d="M6.28756 3.86061C6.30335 3.20516 6.24694 2.52603 6.13074 1.8717C6.03259 1.31779 5.94799 0.372401 5.39294 0.0666741C5.10752 -0.091266 4.79954 0.0576534 4.56489 0.240413C1.02252 3.01113 -0.182342 9.90974 0.0218521 15.1093C0.0647215 16.189 0.0613365 17.378 0.796886 18.2523C1.71632 19.3455 3.37582 18.9179 4.4532 18.3956C5.90399 17.6917 7.26227 16.55 8.12643 15.1725C8.59687 14.4234 8.93531 13.6281 9.01428 12.7459C9.05376 12.3048 9.02556 11.858 8.92403 11.4259C8.86649 11.1834 8.60815 11.0446 8.37349 11.1304C7.9527 11.2849 7.25889 11.6753 6.4455 12.668C6.33945 12.7978 6.34735 12.7696 6.24356 12.685C6.14654 12.6049 6.03147 12.4887 6.01342 12.4751C5.93896 12.4198 6.02132 12.3713 6.1127 12.2551C7.27581 10.7649 8.46262 9.06023 8.69163 7.14126C8.73901 6.74302 8.7503 6.35043 8.68712 5.95445C8.66681 5.83035 8.64087 5.70625 8.60928 5.58441C8.55287 5.36781 8.36899 5.20761 8.14674 5.18843C7.72482 5.15233 6.61359 5.68707 5.96265 6.23197L5.94235 6.20489C5.94235 6.05711 6.03598 5.8687 6.0687 5.72204C6.11044 5.53477 6.14541 5.3464 6.17361 5.15687C6.23679 4.73382 6.27515 4.29946 6.28531 3.86174L6.28756 3.86061Z" fill="url(#paint0_linear_20736_1314)"/>
<path id="Vector_2" d="M23.4134 14.5948C24.0891 13.9112 24.7108 13.1282 25.2444 12.3115C25.6968 11.6199 26.5564 10.5256 26.271 9.64115C26.1243 9.18538 25.6449 9.03531 25.2117 8.99582C18.6413 8.39678 10.4183 14.5598 5.41161 20.3235C4.37146 21.5205 3.17337 22.7885 3.08087 24.4627C2.96467 26.5554 5.16793 27.767 6.84548 28.2905C9.10402 28.9955 11.7033 29.1411 14.0114 28.5375C15.2671 28.2093 16.4291 27.6993 17.3993 26.8374C17.8855 26.4053 18.304 25.8999 18.6289 25.3359C18.8106 25.0189 18.6741 24.6105 18.3379 24.4672C17.7332 24.2088 16.5994 23.9291 14.7323 24.1727C14.4886 24.2043 14.5259 24.1829 14.4999 23.9877C14.4762 23.805 14.4706 23.5647 14.465 23.5308C14.4413 23.3977 14.5778 23.4282 14.791 23.3955C17.5324 22.9713 20.5152 22.3429 22.6869 20.521C23.137 20.143 23.5443 19.7346 23.8748 19.2473C23.9786 19.0938 24.0745 18.9359 24.1636 18.7746C24.3204 18.4869 24.2866 18.1304 24.0677 17.8856C23.6537 17.4231 21.9276 16.8782 20.6844 16.806L20.6901 16.7563C20.8401 16.5995 21.1278 16.4901 21.3105 16.3671C21.5441 16.2092 21.7708 16.0434 21.9919 15.8685C22.4838 15.4804 22.961 15.054 23.4134 14.5959V14.5948Z" fill="url(#paint1_linear_20736_1314)"/>
</g>
<defs>
<linearGradient id="paint0_linear_20736_1314" x1="5.04346" y1="5.86175" x2="5.04346" y2="18.9333" gradientUnits="userSpaceOnUse">
<stop stop-color="#6B4EFF"/>
<stop offset="1" stop-color="#4F92F6"/>
</linearGradient>
<linearGradient id="paint1_linear_20736_1314" x1="16.0608" y1="15.1348" x2="16.0608" y2="28.9146" gradientUnits="userSpaceOnUse">
<stop stop-color="#6B4EFF"/>
<stop offset="1" stop-color="#4F92F6"/>
</linearGradient>
</defs>
</svg>
