<svg width="117" height="26" viewBox="0 0 117 26" fill="none" xmlns="http://www.w3.org/2000/svg">
<path d="M19.935 10.5995C19.5126 12.5783 18.8125 14.3115 17.8345 15.8002C16.8566 17.2889 15.6514 18.4447 14.2178 19.2677C12.7842 20.0895 11.1899 20.5016 9.43377 20.5016C7.58926 20.5016 5.95479 20.0849 4.53381 19.2516C3.11169 18.4183 2.00062 17.2567 1.2006 15.768C0.400582 14.2793 0 12.5565 0 10.6006C0 8.64478 0.400582 6.89555 1.2006 5.41718C2.00062 3.93996 3.11169 2.78413 4.53381 1.94968C5.95594 1.11637 7.58926 0.699707 9.43377 0.699707C11.2783 0.699707 12.7842 1.11062 14.2178 1.93359C15.6514 2.75657 16.8623 3.90667 17.8517 5.38389C18.84 6.86226 19.5356 8.60117 19.935 10.6006V10.5995ZM4.40067 10.5995C4.40067 11.8667 4.66122 12.9835 5.18462 13.9499C5.70687 14.9164 6.42309 15.6728 7.33445 16.2168C8.2458 16.762 9.2903 17.0341 10.4679 17.0341C11.6456 17.0341 12.7796 16.762 13.8012 16.2168C14.8227 15.6728 15.7295 14.9164 16.518 13.9499C17.3065 12.9835 17.9344 11.8667 18.4015 10.5995C17.9344 9.33232 17.3065 8.21551 16.518 7.24906C15.7283 6.28262 14.8227 5.52736 13.8012 4.98216C12.7785 4.4381 11.6674 4.16491 10.4679 4.16491C9.26849 4.16491 8.2458 4.43695 7.33445 4.98216C6.42309 5.52736 5.70572 6.28262 5.18462 7.24906C4.66237 8.21551 4.40067 9.33232 4.40067 10.5995ZM18.6024 20.0333L17.869 13.0328L18.7355 10.5995L17.869 8.19945L18.6024 1.16572H23.0696L22.0699 10.5995L23.0696 20.0333H18.6024Z" fill="url(#paint0_linear_17552_70417)"/>
<path d="M35.3031 18.5667C33.57 18.5667 32.0135 18.1948 30.6362 17.4499C29.2577 16.7062 28.1696 15.6662 27.3695 14.3325C26.5695 12.9987 26.1689 11.432 26.1689 9.63224C26.1689 7.83249 26.5695 6.26575 27.3695 4.93201C28.1696 3.59826 29.2577 2.55948 30.6362 1.81456C32.0135 1.07079 33.57 0.697754 35.3031 0.697754C36.5921 0.697754 37.787 0.897469 38.8866 1.29805C39.9862 1.69863 40.9756 2.22663 41.8536 2.88202C42.7317 3.53742 43.4755 4.26055 44.0873 5.04908C44.6979 5.83877 45.1708 6.63878 45.5036 7.44913C45.8365 8.26062 46.0041 8.99981 46.0041 9.66553C46.0041 10.5321 45.7481 11.4825 45.2374 12.5155C44.7254 13.5485 43.9977 14.5219 43.0542 15.4321C42.1096 16.3434 40.9813 17.0941 39.6705 17.6818C38.3586 18.2706 36.9032 18.5656 35.3031 18.5656V18.5667ZM44.3708 15.3999V12.0667L44.5372 11.4664V7.8325L44.3708 7.16562V1.16492H48.7049V14.9994C48.7049 17.4224 48.1929 19.4494 47.1714 21.0827C46.1487 22.716 44.7484 23.9442 42.9716 24.766C41.1937 25.5878 39.1494 25.9999 36.8377 25.9999C35.1482 25.9999 33.5929 25.7772 32.1708 25.333C30.7487 24.8877 29.3702 24.2105 28.0376 23.2991V19.6985C29.3931 20.7648 30.7934 21.5154 32.2374 21.9482C33.6813 22.382 35.1264 22.5978 36.5715 22.5978C39.1047 22.5978 41.0387 21.9757 42.3724 20.7315C43.7062 19.4873 44.3731 17.7093 44.3731 15.3976L44.3708 15.3999ZM36.6369 15.3667C38.2151 15.3667 39.6648 14.911 40.9871 13.9996C42.3093 13.0883 43.4927 11.6329 44.5372 9.63224C43.4927 7.58801 42.3082 6.11539 40.9871 5.21551C39.6648 4.31563 38.214 3.86569 36.6369 3.86569C35.3479 3.86569 34.2472 4.11016 33.337 4.59913C32.4256 5.08809 31.7312 5.76644 31.2537 6.63303C30.7751 7.49962 30.5375 8.49937 30.5375 9.63339C30.5375 10.7674 30.7762 11.7339 31.2537 12.6005C31.7312 13.4671 32.4256 14.1454 33.337 14.6344C34.2483 15.1233 35.3479 15.3678 36.6369 15.3678V15.3667Z" fill="url(#paint1_linear_17552_70417)"/>
<path d="M63.6385 20.5006C61.3498 20.5006 59.3434 20.084 57.6217 19.2506C55.8989 18.4173 54.5548 17.2558 53.5883 15.7671C52.6219 14.2784 52.1387 12.5555 52.1387 10.5997C52.1387 8.64381 52.6219 6.89457 53.5883 5.4162C54.5548 3.93898 55.9 2.78315 57.6217 1.9487C59.3434 1.1154 61.3498 0.69873 63.6385 0.69873C65.9272 0.69873 67.9336 1.1154 69.6553 1.9487C71.377 2.782 72.7222 3.93783 73.6886 5.4162C74.6551 6.89457 75.1383 8.622 75.1383 10.5997C75.1383 12.5773 74.6551 14.2784 73.6886 15.7671C72.7222 17.2558 71.377 18.4173 69.6553 19.2506C67.9324 20.084 65.9272 20.5006 63.6385 20.5006ZM63.6385 17.0997C65.1054 17.0997 66.3668 16.8334 67.4216 16.2997C68.4765 15.7659 69.2937 15.0164 69.8722 14.05C70.4495 13.0835 70.7388 11.9334 70.7388 10.5997C70.7388 9.26591 70.4495 8.11581 69.8722 7.14936C69.2937 6.18292 68.4776 5.43227 67.4216 4.89969C66.3657 4.36596 65.1054 4.09968 63.6385 4.09968C62.1716 4.09968 60.9377 4.36596 59.8714 4.89969C58.8051 5.43342 57.9821 6.18292 57.4048 7.14936C56.8263 8.11581 56.5382 9.26591 56.5382 10.5997C56.5382 11.9334 56.8263 13.0835 57.4048 14.05C57.9821 15.0164 58.8051 15.7671 59.8714 16.2997C60.9377 16.8322 62.1934 17.0997 63.6385 17.0997Z" fill="url(#paint2_linear_17552_70417)"/>
<path d="M77.7725 1.16474H82.1066L83.2394 8.03205V20.0334H78.9053V7.19874L77.7725 1.16474ZM92.8075 1.03161V4.83196C92.3185 4.69882 91.7848 4.59897 91.2075 4.5324C90.629 4.46583 90.0849 4.43253 89.5741 4.43253C88.3517 4.43253 87.2625 4.69882 86.3075 5.23254C85.3514 5.76627 84.6019 6.56055 84.0578 7.61653C83.5126 8.6725 83.2406 9.96723 83.2406 11.5007L82.2409 10.2668C82.3292 8.93307 82.5576 7.68312 82.9238 6.51695C83.2911 5.34964 83.8019 4.33383 84.4573 3.46609C85.1127 2.5995 85.9184 1.92115 86.8745 1.43219C87.8295 0.943228 88.9417 0.69873 90.2077 0.69873C90.6519 0.69873 91.1076 0.727423 91.5748 0.782518C92.0419 0.83876 92.4528 0.921422 92.8086 1.03276L92.8075 1.03161Z" fill="url(#paint3_linear_17552_70417)"/>
<path d="M113.776 10.5995C113.353 12.5783 112.653 14.3115 111.675 15.8002C110.697 17.2889 109.492 18.4447 108.059 19.2677C106.625 20.0907 105.031 20.5016 103.275 20.5016C101.43 20.5016 99.7956 20.0849 98.3746 19.2516C96.9525 18.4183 95.8414 17.2567 95.0414 15.768C94.2414 14.2793 93.8408 12.5565 93.8408 10.6006C93.8408 8.64478 94.2414 6.89555 95.0414 5.41718C95.8414 3.93996 96.9525 2.78413 98.3746 1.94968C99.7968 1.11637 101.43 0.699707 103.275 0.699707C105.119 0.699707 106.625 1.11062 108.059 1.93359C109.492 2.75657 110.703 3.90667 111.693 5.38389C112.681 6.86226 113.376 8.60117 113.776 10.6006V10.5995ZM98.2415 10.5995C98.2415 11.8667 98.502 12.9835 99.0254 13.9499C99.5477 14.9164 100.264 15.6728 101.175 16.2168C102.087 16.762 103.131 17.0341 104.309 17.0341C105.486 17.0341 106.62 16.762 107.642 16.2168C108.664 15.6728 109.569 14.9164 110.359 13.9499C111.147 12.9835 111.775 11.8667 112.242 10.5995C111.775 9.33232 111.147 8.21551 110.359 7.24906C109.569 6.28262 108.664 5.52736 107.642 4.98216C106.619 4.4381 105.508 4.16491 104.309 4.16491C103.109 4.16491 102.087 4.43695 101.175 4.98216C100.264 5.52736 99.5465 6.28262 99.0254 7.24906C98.5032 8.21551 98.2415 9.33232 98.2415 10.5995ZM112.442 20.0333L111.709 13.0328L112.575 10.5995L111.709 8.19945L112.442 1.16572H116.909L115.91 10.5995L116.909 20.0333H112.442Z" fill="url(#paint4_linear_17552_70417)"/>
<defs>
<linearGradient id="paint0_linear_17552_70417" x1="12.8829" y1="6.83002" x2="12.8829" y2="20.5004" gradientUnits="userSpaceOnUse">
<stop stop-color="#6B4EFF"/>
<stop offset="1" stop-color="#4F92F6"/>
</linearGradient>
<linearGradient id="paint1_linear_17552_70417" x1="38.7538" y1="8.53086" x2="38.7538" y2="25.9984" gradientUnits="userSpaceOnUse">
<stop stop-color="#6B4EFF"/>
<stop offset="1" stop-color="#4F92F6"/>
</linearGradient>
<linearGradient id="paint2_linear_17552_70417" x1="64.9825" y1="6.82904" x2="64.9825" y2="20.4995" gradientUnits="userSpaceOnUse">
<stop stop-color="#6B4EFF"/>
<stop offset="1" stop-color="#4F92F6"/>
</linearGradient>
<linearGradient id="paint3_linear_17552_70417" x1="86.1692" y1="6.68442" x2="86.1692" y2="20.0323" gradientUnits="userSpaceOnUse">
<stop stop-color="#6B4EFF"/>
<stop offset="1" stop-color="#4F92F6"/>
</linearGradient>
<linearGradient id="paint4_linear_17552_70417" x1="106.723" y1="6.83002" x2="106.723" y2="20.5004" gradientUnits="userSpaceOnUse">
<stop stop-color="#6B4EFF"/>
<stop offset="1" stop-color="#4F92F6"/>
</linearGradient>
</defs>
</svg>
