<svg width="28" height="30" viewBox="0 0 28 30" fill="none" xmlns="http://www.w3.org/2000/svg">
<path d="M7.36391 3.92788C7.37998 3.261 7.32259 2.57004 7.20437 1.90432C7.10451 1.34075 7.01842 0.37889 6.45371 0.0678359C6.16331 -0.0928562 5.84997 0.058658 5.61123 0.244602C2.00713 3.0636 0.781278 10.0824 0.98903 15.3726C1.03265 16.4711 1.0292 17.6808 1.77757 18.5704C2.71303 19.6826 4.40144 19.2476 5.49759 18.7162C6.97366 17.9999 8.35561 16.8383 9.23483 15.4369C9.71346 14.6747 10.0578 13.8655 10.1381 12.968C10.1783 12.5192 10.1496 12.0646 10.0463 11.625C9.98778 11.3783 9.72494 11.2371 9.48619 11.3243C9.05806 11.4816 8.35217 11.8787 7.52461 12.8888C7.41671 13.0208 7.42474 12.9921 7.31915 12.906C7.22044 12.8245 7.10336 12.7063 7.085 12.6925C7.00924 12.6363 7.09303 12.5869 7.186 12.4687C8.36939 10.9524 9.57687 9.2181 9.80987 7.26569C9.85808 6.86052 9.86956 6.46108 9.80529 6.0582C9.78463 5.93194 9.75823 5.80568 9.72609 5.68172C9.6687 5.46134 9.48161 5.29835 9.25549 5.27884C8.82621 5.24211 7.69563 5.78617 7.03334 6.34056L7.01268 6.31301C7.01268 6.16265 7.10795 5.97096 7.14124 5.82175C7.18371 5.63121 7.21929 5.43956 7.24798 5.24673C7.31226 4.8163 7.35129 4.37437 7.36162 3.92903L7.36391 3.92788Z" fill="url(#paint0_linear_17552_70423)"/>
<path d="M24.789 14.849C25.4765 14.1535 26.1089 13.3569 26.6518 12.5259C27.1121 11.8223 27.9867 10.7089 27.6963 9.80905C27.5471 9.34533 27.0593 9.19265 26.6186 9.15248C19.9338 8.543 11.5674 14.8134 6.4735 20.6776C5.41523 21.8954 4.19626 23.1855 4.10214 24.8888C3.98392 27.018 6.22558 28.2507 7.93236 28.7833C10.2303 29.5007 12.8748 29.6488 15.2232 29.0347C16.5007 28.7007 17.6829 28.1819 18.67 27.305C19.1647 26.8654 19.5906 26.3511 19.9211 25.7772C20.1059 25.4547 19.967 25.0392 19.625 24.8934C19.0098 24.6306 17.8562 24.3459 15.9566 24.5938C15.7087 24.626 15.7466 24.6042 15.7202 24.4056C15.6961 24.2197 15.6903 23.9752 15.6846 23.9408C15.6605 23.8053 15.7994 23.8363 16.0163 23.803C18.8055 23.3714 21.8403 22.7321 24.0498 20.8784C24.5077 20.4939 24.9221 20.0784 25.2584 19.5826C25.364 19.4265 25.4616 19.2658 25.5522 19.1016C25.7118 18.8089 25.6774 18.4462 25.4547 18.1972C25.0334 17.7266 23.2773 17.1722 22.0124 17.0987L22.0182 17.0482C22.1708 16.8887 22.4635 16.7773 22.6495 16.6522C22.887 16.4915 23.1178 16.3228 23.3427 16.1449C23.8432 15.7501 24.3287 15.3162 24.789 14.8502V14.849Z" fill="url(#paint1_linear_17552_70423)"/>
<defs>
<linearGradient id="paint0_linear_17552_70423" x1="6.09814" y1="5.96389" x2="6.09814" y2="19.2632" gradientUnits="userSpaceOnUse">
<stop stop-color="#6B4EFF"/>
<stop offset="1" stop-color="#4F92F6"/>
</linearGradient>
<linearGradient id="paint1_linear_17552_70423" x1="17.3083" y1="15.3984" x2="17.3083" y2="29.4183" gradientUnits="userSpaceOnUse">
<stop stop-color="#6B4EFF"/>
<stop offset="1" stop-color="#4F92F6"/>
</linearGradient>
</defs>
</svg>
