<svg width="17" height="17" viewBox="0 0 17 17" fill="none" xmlns="http://www.w3.org/2000/svg">
<path d="M5.3411 11.9133C5.55506 12.0644 5.81071 12.1452 6.07264 12.1446C6.33457 12.1439 6.58981 12.0618 6.80302 11.9096C7.01915 11.7518 7.18307 11.5332 7.27292 11.2806L7.81567 9.61318C7.95495 9.19525 8.18947 8.81543 8.50071 8.50372C8.81196 8.19201 9.1914 7.95693 9.60907 7.81707L11.298 7.27058C11.5478 7.18016 11.7628 7.01365 11.9129 6.79452C12.063 6.57539 12.1405 6.31468 12.1346 6.04913C12.1287 5.78358 12.0397 5.52657 11.88 5.31433C11.7203 5.10208 11.4981 4.94529 11.2446 4.86605L9.57507 4.322C9.15699 4.18286 8.77699 3.94837 8.4651 3.63707C8.15322 3.32577 7.918 2.94618 7.77803 2.52831L7.22921 0.842711C7.14083 0.59438 6.97727 0.379772 6.76127 0.228744C6.54527 0.077715 6.28757 -0.00222402 6.02403 4.70849e-05C5.76049 0.00231819 5.50421 0.0866865 5.29085 0.241415C5.07748 0.396144 4.91764 0.613539 4.83356 0.863356L4.27866 2.56353C4.13936 2.97019 3.90964 3.33995 3.60677 3.64496C3.30391 3.94998 2.93581 4.18229 2.53019 4.32442L0.842427 4.86727C0.594236 4.95584 0.379776 5.11951 0.228821 5.33554C0.0778662 5.55157 -0.00209414 5.80924 4.16996e-05 6.0728C0.00217754 6.33635 0.0863034 6.5927 0.24074 6.80625C0.395176 7.0198 0.612261 7.17997 0.861855 7.26451L2.53019 7.80492C2.9504 7.94439 3.33201 8.18055 3.64434 8.4944C3.95666 8.80825 4.19098 9.19104 4.32844 9.61197L4.87727 11.3012C4.96469 11.549 5.1274 11.7627 5.3411 11.9133ZM5.44431 2.90842L6.0842 1.23618L6.61846 2.90842C6.81701 3.50722 7.15287 4.05125 7.59921 4.49703C8.04555 4.9428 8.58997 5.27795 9.18895 5.47569L10.8961 6.11932L9.21809 6.66216C8.61962 6.86143 8.07588 7.19757 7.63007 7.64387C7.18427 8.09017 6.8487 8.63432 6.65002 9.23307L6.01499 10.9065L5.46981 9.23186C5.27389 8.63333 4.94132 8.08866 4.49843 7.64098C4.04999 7.19452 3.50494 6.85713 2.90538 6.65488L1.23219 6.02096L2.91509 5.47447C3.50596 5.26977 4.04187 4.93197 4.48143 4.48715C4.91761 4.04049 5.24682 3.50071 5.44431 2.90842ZM12.7927 16.8219C12.917 16.9093 13.0598 16.9665 13.2099 16.9891C13.36 17.0117 13.5134 16.9991 13.6578 16.9522C13.8022 16.9053 13.9337 16.8254 14.0419 16.7189C14.1502 16.6124 14.2321 16.4822 14.2814 16.3386L14.5825 15.4132C14.6477 15.2214 14.7557 15.047 14.8982 14.9032C15.0415 14.7574 15.2163 14.6506 15.4082 14.5874L16.3455 14.2814C16.539 14.2146 16.7064 14.0884 16.8239 13.9209C16.9414 13.7533 17.003 13.5529 16.9999 13.3483C16.9968 13.1437 16.9292 12.9452 16.8066 12.7813C16.6841 12.6174 16.513 12.4964 16.3176 12.4355L15.39 12.1319C15.1982 12.0676 15.0238 11.9598 14.8806 11.817C14.7374 11.6742 14.6291 11.5001 14.5643 11.3085L14.2583 10.3698C14.1926 10.1767 14.0678 10.0092 13.9016 9.891C13.7354 9.77282 13.5363 9.70994 13.3323 9.71129C13.1284 9.71263 12.9301 9.77812 12.7655 9.89849C12.6009 10.0188 12.4783 10.188 12.4151 10.3819L12.1152 11.3073C12.0532 11.4977 11.9481 11.6711 11.808 11.8142C11.668 11.9572 11.4968 12.0659 11.3078 12.1319L10.3692 12.4379C10.176 12.5034 10.0084 12.628 9.89004 12.794C9.77166 12.9601 9.70853 13.1592 9.70961 13.3631C9.71068 13.5671 9.7759 13.7655 9.89602 13.9303C10.0161 14.0951 10.1851 14.2179 10.3789 14.2814L11.3053 14.5813C11.4996 14.6469 11.6745 14.755 11.8177 14.8983C11.9622 15.0428 12.0691 15.2177 12.131 15.4108L12.4382 16.3507C12.5047 16.5407 12.6286 16.7054 12.7927 16.8219ZM11.6842 13.4301L11.4668 13.3596L11.6902 13.2819C12.0576 13.1528 12.3906 12.9417 12.6641 12.6645C12.9377 12.3874 13.1444 12.0516 13.2687 11.6825L13.3391 11.4664L13.412 11.6862C13.536 12.0584 13.7449 12.3966 14.0223 12.674C14.2996 12.9514 14.6378 13.1604 15.0099 13.2843L15.2467 13.3609L15.0281 13.4337C14.6552 13.558 14.3165 13.7677 14.0389 14.046C13.7613 14.3243 13.5524 14.6635 13.429 15.0367L13.3574 15.2565L13.2869 15.0379C13.1636 14.6637 12.9544 14.3234 12.6761 14.0444C12.3978 13.7655 12.0581 13.5555 11.6842 13.4313" fill="#6B4EFF"/>
</svg>
